<svg width="311" height="382" viewBox="0 0 311 382" fill="none" xmlns="http://www.w3.org/2000/svg">
<path fill-rule="evenodd" clip-rule="evenodd" d="M55.9902 4.5617L97.6702 76.7996C98.2934 77.881 98.6212 79.1072 98.621 80.3552C98.6208 81.6032 98.2924 82.8292 97.6688 83.9102C97.0452 84.9914 96.1482 85.8894 95.068 86.5146C93.9878 87.1396 92.7622 87.4696 91.5142 87.4716L8.1102 87.4776C6.8614 87.4762 5.6348 87.1464 4.5538 86.521C3.4728 85.8956 2.5752 84.9968 1.9514 83.9148C1.3276 82.8328 0.9996 81.6058 1 80.3568C1.0006 79.108 1.3296 77.8812 1.9542 76.7996L43.6422 4.5617C44.2686 3.47866 45.1688 2.57944 46.2524 1.95426C47.3362 1.3291 48.5652 1 49.8162 1C51.0674 1 52.2964 1.3291 53.3802 1.95426C54.4638 2.57944 55.364 3.47866 55.9902 4.5617ZM49.8104 69.0526C51.2682 69.0526 52.45 67.8708 52.45 66.413C52.45 64.9552 51.2682 63.7736 49.8104 63.7736C48.3528 63.7736 47.171 64.9552 47.171 66.413C47.171 67.8708 48.3528 69.0526 49.8104 69.0526Z" fill="#FECFC4"/>
<path d="M274.052 68.0556C259.006 65.2056 244.652 74.0556 242.052 87.8136C241.168 92.6336 241.792 97.6094 243.84 102.062L237.342 112.702L249.654 110.194C253.788 114.158 258.992 116.826 264.624 117.87C279.67 120.72 294.024 111.87 296.624 98.1116C299.244 84.3556 289.138 70.9056 274.052 68.0556Z" fill="#FECFC4"/>
<path d="M84.9396 159.78C86.3248 159.78 87.4476 158.657 87.4476 157.272C87.4476 155.887 86.3248 154.764 84.9396 154.764C83.5546 154.764 82.4316 155.887 82.4316 157.272C82.4316 158.657 83.5546 159.78 84.9396 159.78Z" fill="#FECFC4"/>
<path d="M107.512 178.931C107.512 179.428 107.365 179.912 107.089 180.325C106.814 180.737 106.422 181.059 105.964 181.249C105.506 181.438 105.001 181.488 104.515 181.391C104.028 181.295 103.581 181.056 103.231 180.705C102.88 180.354 102.641 179.907 102.544 179.421C102.447 178.934 102.497 178.43 102.687 177.972C102.877 177.513 103.198 177.122 103.611 176.846C104.023 176.571 104.508 176.423 105.004 176.423C105.668 176.429 106.302 176.695 106.772 177.164C107.241 177.633 107.507 178.268 107.512 178.931Z" fill="#FECFC4"/>
<path d="M130.955 160.692C130.955 161.188 130.808 161.673 130.533 162.085C130.257 162.497 129.866 162.819 129.407 163.009C128.949 163.199 128.445 163.248 127.958 163.151C127.472 163.055 127.025 162.816 126.674 162.465C126.323 162.114 126.084 161.667 125.988 161.181C125.891 160.694 125.941 160.19 126.13 159.732C126.32 159.274 126.642 158.882 127.054 158.606C127.467 158.331 127.951 158.184 128.447 158.184C129.111 158.189 129.745 158.456 130.215 158.925C130.684 159.394 130.95 160.028 130.955 160.692Z" fill="#FECFC4"/>
<path d="M156.719 182.122C156.719 182.618 156.573 183.103 156.297 183.516C156.023 183.929 155.631 184.25 155.172 184.44C154.714 184.631 154.21 184.68 153.723 184.584C153.236 184.487 152.789 184.249 152.438 183.898C152.087 183.547 151.848 183.1 151.751 182.614C151.655 182.127 151.704 181.623 151.894 181.165C152.084 180.706 152.405 180.314 152.818 180.039C153.23 179.763 153.715 179.616 154.211 179.616C154.874 179.622 155.508 179.887 155.977 180.356C156.447 180.825 156.713 181.459 156.719 182.122Z" fill="#FECFC4"/>
<path d="M178.604 160.692C178.604 161.188 178.456 161.673 178.182 162.085C177.906 162.497 177.514 162.819 177.056 163.009C176.598 163.199 176.094 163.248 175.606 163.151C175.12 163.055 174.674 162.816 174.322 162.465C173.972 162.114 173.734 161.667 173.636 161.181C173.54 160.694 173.59 160.19 173.778 159.732C173.968 159.274 174.29 158.882 174.702 158.606C175.116 158.331 175.6 158.184 176.096 158.184C176.76 158.189 177.394 158.456 177.864 158.925C178.332 159.394 178.598 160.028 178.604 160.692Z" fill="#FECFC4"/>
<path d="M205.961 162.135C205.961 162.631 205.813 163.116 205.539 163.529C205.263 163.941 204.871 164.263 204.413 164.453C203.955 164.642 203.451 164.692 202.963 164.595C202.477 164.498 202.031 164.26 201.679 163.909C201.329 163.558 201.089 163.111 200.993 162.625C200.897 162.138 200.947 161.634 201.135 161.176C201.325 160.717 201.647 160.326 202.059 160.05C202.473 159.775 202.957 159.627 203.453 159.627C204.117 159.633 204.751 159.899 205.221 160.368C205.689 160.837 205.955 161.472 205.961 162.135Z" fill="#FECFC4"/>
<path d="M233.738 160.691C235.124 160.691 236.246 159.569 236.246 158.183C236.246 156.798 235.124 155.675 233.738 155.675C232.354 155.675 231.23 156.798 231.23 158.183C231.23 159.569 232.354 160.691 233.738 160.691Z" fill="#FECFC4"/>
<path d="M222.832 185.2C222.832 185.696 222.684 186.181 222.41 186.593C222.134 187.005 221.742 187.327 221.284 187.517C220.826 187.707 220.322 187.756 219.834 187.659C219.348 187.563 218.902 187.324 218.55 186.973C218.2 186.622 217.962 186.175 217.864 185.689C217.768 185.202 217.818 184.698 218.006 184.24C218.196 183.782 218.518 183.39 218.93 183.114C219.344 182.839 219.828 182.692 220.324 182.692C220.654 182.688 220.982 182.751 221.288 182.875C221.594 183 221.872 183.185 222.106 183.418C222.338 183.652 222.524 183.93 222.648 184.236C222.774 184.542 222.836 184.869 222.832 185.2Z" fill="#FECFC4"/>
<path d="M47.0195 148.647V160.957C48.7675 160.235 50.6195 159.475 52.5675 158.677V152.389C50.4991 151.502 48.6169 150.233 47.0195 148.647Z" fill="#6153BD"/>
<path d="M47.0195 175.436V380.962H52.5675V171.978C50.8195 173.08 48.8055 174.372 47.0195 175.436Z" fill="#6153BD"/>
<path d="M162.53 133.22L159.492 137.552L159.568 133.866L162.53 133.22Z" fill="#6153BD"/>
<path d="M239.285 145.599L240.197 145.029C240.397 144.925 248.267 142.189 248.397 142.141C243.235 139.565 238.715 140.705 239.285 145.599Z" fill="#6153BD"/>
<path d="M255.776 156.815L250.576 158.639C254.072 160.083 257.576 159.887 258.52 156.961L255.776 156.815Z" fill="#6153BD"/>
<path d="M145.623 375.299C145.183 370.865 144.213 366.501 142.735 362.299C134.626 364.617 126.031 364.617 117.923 362.299C107.171 365.415 94.8966 374.951 88.4746 380.955C110.057 380.955 124.345 380.765 140.759 380.727C141.447 380.729 142.127 380.585 142.756 380.303C143.384 380.023 143.946 379.615 144.406 379.101C144.865 378.589 145.211 377.985 145.42 377.331C145.63 376.675 145.699 375.983 145.623 375.299Z" fill="#6153BD"/>
<path d="M266.075 342.849L259.007 339.049C256.195 348.283 252.851 351.019 244.149 356.719C248.519 363.255 247.493 366.485 246.999 368.383C242.399 372.715 240.085 372.697 236.893 380.983H252.893C255.041 381.031 257.159 380.463 258.997 379.349C260.835 378.235 262.315 376.619 263.267 374.693C265.667 369.493 267.667 358.963 269.915 352.769C270.615 350.933 270.609 348.903 269.901 347.071C269.191 345.239 267.829 343.735 266.075 342.849Z" fill="#6153BD"/>
<path d="M270.973 101.834C270.957 102.181 270.805 102.509 270.549 102.744C270.293 102.979 269.953 103.103 269.605 103.088C269.257 103.073 268.929 102.92 268.695 102.663C268.459 102.407 268.335 102.067 268.351 101.72C268.359 101.548 268.399 101.379 268.473 101.222C268.545 101.066 268.649 100.926 268.775 100.809C268.903 100.693 269.051 100.603 269.213 100.544C269.375 100.485 269.547 100.458 269.719 100.466C269.891 100.473 270.061 100.514 270.217 100.587C270.373 100.66 270.513 100.763 270.629 100.89C270.745 101.017 270.837 101.166 270.895 101.328C270.953 101.49 270.981 101.662 270.973 101.834Z" fill="#6153BD"/>
<path d="M47.0586 147.774V87.4777L52.6066 87.4717V148.116C49.2246 147.508 47.5906 147.47 47.0586 147.774Z" fill="#6153BD"/>
<path d="M199.692 106.4C200.882 106.058 201.91 105.304 202.594 104.273C203.28 103.242 203.574 102.002 203.428 100.773C203.282 99.5441 202.704 98.4075 201.796 97.5659C200.89 96.7245 199.712 96.2331 198.476 96.1797C199.346 95.3961 199.928 94.3425 200.128 93.1885C200.328 92.0343 200.132 90.8467 199.576 89.8163C199.02 88.7859 198.132 87.9727 197.058 87.5073C195.982 87.0417 194.782 86.9511 193.65 87.2497C194.14 86.2083 194.272 85.0347 194.026 83.9103C193.782 82.7861 193.174 81.7737 192.296 81.0297C191.418 80.2859 190.32 79.8517 189.17 79.7947C188.022 79.7375 186.886 80.0605 185.938 80.7137C186.072 79.5201 185.79 78.3171 185.14 77.3067C184.492 76.2963 183.514 75.5401 182.374 75.1647C181.232 74.7895 179.998 74.8181 178.876 75.2459C177.752 75.6735 176.812 76.4743 176.21 77.5137C175.98 76.2693 175.32 75.1447 174.348 74.3337C173.378 73.5229 172.152 73.0767 170.888 73.0723C169.622 73.0677 168.394 73.5051 167.416 74.3091C166.438 75.1131 165.772 76.2331 165.532 77.4757C164.938 76.4319 164.004 75.6241 162.884 75.1873C161.766 74.7505 160.532 74.7113 159.388 75.0765C158.244 75.4417 157.26 76.1887 156.6 77.1929C155.942 78.1969 155.648 79.3969 155.768 80.5917C154.827 79.9297 153.693 79.5959 152.543 79.6417C151.393 79.6875 150.29 80.1103 149.405 80.8449C148.519 81.5797 147.899 82.5853 147.641 83.7071C147.383 84.8287 147.502 86.0041 147.978 87.0517C146.85 86.7521 145.653 86.8375 144.579 87.2945C143.504 87.7513 142.613 88.5537 142.046 89.5743C141.479 90.5951 141.269 91.7757 141.448 92.9295C141.628 94.0831 142.187 95.1439 143.038 95.9437C141.802 95.9877 140.622 96.4687 139.707 97.3013C138.793 98.1339 138.203 99.2639 138.043 100.49C137.884 101.717 138.164 102.96 138.836 103.999C139.507 105.038 140.524 105.805 141.708 106.164C140.523 106.514 139.5 107.272 138.821 108.306C138.143 109.339 137.853 110.579 138.004 111.806C138.154 113.033 138.735 114.167 139.643 115.005C140.551 115.844 141.727 116.333 142.962 116.386C142.102 117.179 141.533 118.237 141.346 119.391C141.158 120.545 141.363 121.729 141.928 122.753C142.492 123.777 143.384 124.583 144.46 125.04C145.536 125.498 146.735 125.581 147.864 125.278C147.477 126.1 147.312 127.009 147.386 127.915C147.46 128.821 147.77 129.691 148.285 130.44C148.8 131.188 149.503 131.789 150.322 132.182C151.142 132.574 152.05 132.745 152.956 132.678C150.638 130.816 149.802 126.678 153.602 117.898C160.366 102.282 166.558 113.186 166.482 119.532C166.596 120.672 167.242 120.9 168.952 119.494C172.524 116.53 175.64 122.762 168.838 126.332C167.546 127.018 166.672 128.532 167.774 136.932C167.842 137.533 167.942 138.129 168.078 138.718C168.82 139.097 169.64 139.296 170.472 139.299C171.304 139.302 172.126 139.109 172.87 138.735C173.614 138.361 174.26 137.817 174.754 137.148C175.248 136.478 175.578 135.701 175.716 134.88C176.302 135.929 177.232 136.746 178.348 137.192C179.464 137.638 180.7 137.687 181.848 137.331C182.996 136.975 183.988 136.235 184.656 135.235C185.322 134.236 185.626 133.037 185.516 131.84C186.45 132.51 187.578 132.855 188.728 132.82C189.876 132.785 190.982 132.372 191.872 131.645C192.764 130.919 193.39 129.919 193.656 128.8C193.922 127.682 193.812 126.507 193.342 125.458C194.468 125.761 195.662 125.681 196.736 125.23C197.81 124.779 198.704 123.982 199.274 122.966C199.846 121.951 200.062 120.774 199.888 119.621C199.716 118.469 199.164 117.407 198.32 116.604C199.544 116.547 200.71 116.063 201.614 115.236C202.518 114.408 203.102 113.289 203.266 112.074C203.428 110.86 203.16 109.626 202.508 108.589C201.854 107.552 200.858 106.777 199.692 106.4Z" fill="#6153BD"/>
<path d="M84.9396 159.78C86.3248 159.78 87.4476 158.657 87.4476 157.272C87.4476 155.887 86.3248 154.764 84.9396 154.764C83.5546 154.764 82.4316 155.887 82.4316 157.272C82.4316 158.657 83.5546 159.78 84.9396 159.78Z" stroke="#120071" stroke-width="1.5"/>
<path d="M107.512 178.931C107.512 179.428 107.365 179.912 107.089 180.325C106.814 180.737 106.422 181.059 105.964 181.249C105.506 181.438 105.001 181.488 104.515 181.391C104.028 181.295 103.581 181.056 103.231 180.705C102.88 180.354 102.641 179.907 102.544 179.421C102.447 178.934 102.497 178.43 102.687 177.972C102.877 177.513 103.198 177.122 103.611 176.846C104.023 176.571 104.508 176.423 105.004 176.423C105.668 176.429 106.302 176.695 106.772 177.164C107.241 177.633 107.507 178.268 107.512 178.931Z" stroke="#120071" stroke-width="1.5"/>
<path d="M130.955 160.692C130.955 161.188 130.808 161.673 130.533 162.085C130.257 162.497 129.866 162.819 129.407 163.009C128.949 163.199 128.445 163.248 127.958 163.151C127.472 163.055 127.025 162.816 126.674 162.465C126.323 162.114 126.084 161.667 125.988 161.181C125.891 160.694 125.941 160.19 126.13 159.732C126.32 159.274 126.642 158.882 127.054 158.606C127.467 158.331 127.951 158.184 128.447 158.184C129.111 158.189 129.745 158.456 130.215 158.925C130.684 159.394 130.95 160.028 130.955 160.692Z" stroke="#120071" stroke-width="1.5"/>
<path d="M156.719 182.122C156.719 182.618 156.573 183.103 156.297 183.516C156.023 183.929 155.631 184.25 155.172 184.44C154.714 184.631 154.21 184.68 153.723 184.584C153.236 184.487 152.789 184.249 152.438 183.898C152.087 183.547 151.848 183.1 151.751 182.614C151.655 182.127 151.704 181.623 151.894 181.165C152.084 180.706 152.405 180.314 152.818 180.039C153.23 179.763 153.715 179.616 154.211 179.616C154.874 179.622 155.508 179.887 155.977 180.356C156.447 180.825 156.713 181.459 156.719 182.122Z" stroke="#120071" stroke-width="1.5"/>
<path d="M178.604 160.692C178.604 161.188 178.456 161.673 178.182 162.085C177.906 162.497 177.514 162.819 177.056 163.009C176.598 163.199 176.094 163.248 175.606 163.151C175.12 163.055 174.674 162.816 174.322 162.465C173.972 162.114 173.734 161.667 173.636 161.181C173.54 160.694 173.59 160.19 173.778 159.732C173.968 159.274 174.29 158.882 174.702 158.606C175.116 158.331 175.6 158.184 176.096 158.184C176.76 158.189 177.394 158.456 177.864 158.925C178.332 159.394 178.598 160.028 178.604 160.692Z" stroke="#120071" stroke-width="1.5"/>
<path d="M205.961 162.135C205.961 162.631 205.813 163.116 205.539 163.529C205.263 163.941 204.871 164.263 204.413 164.453C203.955 164.642 203.451 164.692 202.963 164.595C202.477 164.498 202.031 164.26 201.679 163.909C201.329 163.558 201.089 163.111 200.993 162.625C200.897 162.138 200.947 161.634 201.135 161.176C201.325 160.717 201.647 160.326 202.059 160.05C202.473 159.775 202.957 159.627 203.453 159.627C204.117 159.633 204.751 159.899 205.221 160.368C205.689 160.837 205.955 161.472 205.961 162.135Z" stroke="#120071" stroke-width="1.5"/>
<path d="M233.738 160.691C235.124 160.691 236.246 159.569 236.246 158.183C236.246 156.798 235.124 155.675 233.738 155.675C232.354 155.675 231.23 156.798 231.23 158.183C231.23 159.569 232.354 160.691 233.738 160.691Z" stroke="#120071" stroke-width="1.5"/>
<path d="M222.832 185.2C222.832 185.696 222.684 186.181 222.41 186.593C222.134 187.005 221.742 187.327 221.284 187.517C220.826 187.707 220.322 187.756 219.834 187.659C219.348 187.563 218.902 187.324 218.55 186.973C218.2 186.622 217.962 186.175 217.864 185.689C217.768 185.202 217.818 184.698 218.006 184.24C218.196 183.782 218.518 183.39 218.93 183.114C219.344 182.839 219.828 182.692 220.324 182.692C220.654 182.688 220.982 182.751 221.288 182.875C221.594 183 221.872 183.185 222.106 183.418C222.338 183.652 222.524 183.93 222.648 184.236C222.774 184.542 222.836 184.869 222.832 185.2Z" stroke="#120071" stroke-width="1.5"/>
<path d="M270.973 101.834C270.957 102.181 270.805 102.509 270.549 102.744C270.293 102.979 269.953 103.103 269.605 103.088C269.257 103.073 268.929 102.92 268.695 102.663C268.459 102.407 268.335 102.067 268.351 101.72C268.359 101.548 268.399 101.379 268.473 101.222C268.545 101.066 268.649 100.926 268.775 100.809C268.903 100.693 269.051 100.603 269.213 100.544C269.375 100.485 269.547 100.458 269.719 100.466C269.891 100.473 270.061 100.514 270.217 100.587C270.373 100.66 270.513 100.763 270.629 100.89C270.745 101.017 270.837 101.166 270.895 101.328C270.953 101.49 270.981 101.662 270.973 101.834Z" stroke="#120071" stroke-width="1.5"/>
<path d="M47.0195 147.774V87.4717" stroke="#120071" stroke-width="1.5" stroke-linecap="round" stroke-linejoin="round"/>
<path d="M47.0195 160.958V148.686" stroke="#120071" stroke-width="1.5" stroke-linecap="round" stroke-linejoin="round"/>
<path d="M47.0195 380.999V175.549" stroke="#120071" stroke-width="1.5" stroke-linecap="round" stroke-linejoin="round"/>
<path d="M52.6055 172.129V380.999" stroke="#120071" stroke-width="1.5" stroke-linecap="round" stroke-linejoin="round"/>
<path d="M52.6055 152.41V158.716" stroke="#120071" stroke-width="1.5" stroke-linecap="round" stroke-linejoin="round"/>
<path d="M52.6055 87.4717V148.116" stroke="#120071" stroke-width="1.5" stroke-linecap="round" stroke-linejoin="round"/>
<path d="M254.37 161.756C263.88 183.338 265.05 207.682 257.652 230.076C250.256 252.472 234.816 271.328 214.322 283" stroke="#120071" stroke-width="1.5" stroke-linecap="round" stroke-linejoin="round"/>
<path d="M86.041 150.434C94.0514 137.378 105.092 126.447 118.226 118.566C124.485 114.811 131.131 111.801 138.029 109.58M241.841 141.022C232.317 129.025 220.041 119.502 206.053 113.26C205.133 112.85 204.207 112.454 203.275 112.073" stroke="#120071" stroke-width="1.5" stroke-linecap="round" stroke-linejoin="round"/>
<path d="M130.424 288.057C113.113 280.799 98.3316 268.589 87.9356 252.961C77.5396 237.331 71.9924 218.979 71.9902 200.209C71.9898 190.84 73.3576 181.521 76.05 172.547" stroke="#120071" stroke-width="1.5" stroke-linecap="round" stroke-linejoin="round"/>
<path d="M183.239 294.1C177.981 295.208 172.607 295.654 167.239 295.43C164.639 295.43 162.025 295.326 159.451 295.12" stroke="#120071" stroke-width="1.5" stroke-linecap="round" stroke-linejoin="round"/>
<path d="M257.753 158.335C250.305 165.783 240.455 176.567 230.281 188.847C227.743 191.921 224.129 193.911 220.177 194.411C216.223 194.913 212.227 193.887 209.003 191.545C200.073 185.049 194.031 180.375 184.229 173.193" stroke="#120071" stroke-width="1.5" stroke-linecap="round" stroke-linejoin="round"/>
<path d="M159.445 137.616L162.529 133.22" stroke="#120071" stroke-width="1.5" stroke-linecap="round" stroke-linejoin="round"/>
<path d="M240.13 142.085C231.76 149.348 224.26 157.556 217.778 166.543C217.778 166.543 198.816 150.665 185.824 142.757C172.408 134.591 169.252 148.077 167.774 136.867C166.668 128.467 167.546 126.947 168.838 126.267C175.638 122.683 172.512 116.447 168.952 119.427C166.834 121.201 166.596 120.427 166.506 118.769C166.154 112.369 160.16 102.769 153.64 117.831C144.44 139.071 162.53 133.219 162.53 133.219" stroke="#120071" stroke-width="1.5" stroke-linecap="round" stroke-linejoin="round"/>
<path d="M159.566 133.839C159.792 137.095 159.26 142.341 156.034 141.579C147.754 139.623 144.21 140.923 139.504 144.579C130.144 151.855 111.12 162.627 111.12 162.627C99.836 155.827 91.6662 152.901 81.1422 148.379C75.5672 154.54 72.3288 162.46 71.9902 170.761C86.9902 177.183 92.7382 180.865 104.478 186.605C107.108 187.899 110.02 188.511 112.948 188.385C115.876 188.259 118.725 187.398 121.234 185.883C128.612 181.411 135.558 177.297 143.12 173.307" stroke="#120071" stroke-width="1.5" stroke-linecap="round" stroke-linejoin="round"/>
<path d="M248.404 142.149C243.874 139.883 239.84 140.481 239.298 143.965C238.832 146.965 240.868 150.505 242.804 152.827C245.506 156.225 249.312 158.571 253.562 159.459C254.55 159.736 255.606 159.633 256.522 159.17C257.438 158.708 258.148 157.92 258.514 156.961" stroke="#120071" stroke-width="1.5" stroke-linecap="round" stroke-linejoin="round"/>
<path d="M140.758 157.386C141.581 169.936 144.792 182.214 150.22 193.56C161.82 196.638 171.232 195.916 182.974 192.344C182.05 183.55 183.21 174.663 186.356 166.4" stroke="#120071" stroke-width="1.5" stroke-linecap="round" stroke-linejoin="round"/>
<path d="M250.571 158.64C255.959 156.563 261.497 154.9 267.139 153.664C272.195 152.798 277.335 152.543 282.451 152.904C289.977 153.348 291.179 151.646 283.401 148.99C280.547 148.014 265.961 145.948 262.731 145.494C257.563 144.768 249.931 144.012 244.871 143.86C244.487 143.861 244.103 143.885 243.723 143.932" stroke="#120071" stroke-width="1.5" stroke-linecap="round" stroke-linejoin="round"/>
<path d="M239.285 145.6C239.393 145.532 256.929 139 263.907 135.8C272.005 132.078 269.825 134.956 267.745 137.434C266.217 139.252 258.663 144.274 262.729 145.49" stroke="#120071" stroke-width="1.5" stroke-linecap="round" stroke-linejoin="round"/>
<path d="M255.738 156.8C260.338 155.698 269.418 156.654 273.444 156.884C276.712 157.072 281.462 158.144 285.11 158.484C285.946 158.562 286.858 157.344 281.994 155.368C280.168 154.63 276.95 153.296 275.43 152.828" stroke="#120071" stroke-width="1.5" stroke-linecap="round" stroke-linejoin="round"/>
<path d="M255.543 156.883C259.327 156.897 263.097 157.307 266.795 158.107C269.795 158.791 274.823 160.689 278.041 161.565C278.841 161.783 279.941 160.729 275.495 157.955C275.159 157.731 274.529 157.355 273.785 156.915" stroke="#120071" stroke-width="1.5" stroke-linecap="round" stroke-linejoin="round"/>
<path d="M72.3263 167.379C66.1897 166.47 59.9853 166.101 53.7843 166.277C48.6629 166.669 43.6021 167.638 38.6983 169.165C31.4803 171.409 29.8983 169.989 36.8363 165.565C48.5515 159.981 60.6687 155.282 73.0863 151.507C74.8479 151.026 76.7127 151.079 78.4443 151.659" stroke="#120071" stroke-width="1.5" stroke-linecap="round" stroke-linejoin="round"/>
<path d="M56.2517 157.271C59.8997 155.105 51.2777 152.071 49.3757 150.671C46.7937 148.767 43.9457 146.511 52.7197 148.163C60.0689 149.66 67.5081 150.674 74.9897 151.199" stroke="#120071" stroke-width="1.5" stroke-linecap="round" stroke-linejoin="round"/>
<path d="M45.4605 167.455C43.8605 168.443 40.6765 170.767 39.7605 171.455C35.5605 174.561 36.6845 175.527 37.4805 175.255C40.6425 174.175 45.4985 171.873 48.4245 170.961C53.1745 169.479 62.2925 166.325 66.6245 166.781" stroke="#120071" stroke-width="1.5" stroke-linecap="round" stroke-linejoin="round"/>
<path d="M48.1585 171.028C47.5125 171.674 47.0185 172.206 46.7145 172.472C43.0665 176.196 44.3525 176.984 45.0805 176.576C47.9845 174.942 52.4165 171.948 55.1885 170.576C58.5755 168.977 62.0973 167.679 65.7125 166.7" stroke="#120071" stroke-width="1.5" stroke-linecap="round" stroke-linejoin="round"/>
<path d="M145.623 375.299C145.183 370.865 144.213 366.501 142.735 362.299C134.626 364.617 126.031 364.617 117.923 362.299C107.171 365.415 94.8966 374.951 88.4746 380.955C110.057 380.955 124.345 380.765 140.759 380.727C141.447 380.729 142.127 380.585 142.756 380.303C143.384 380.023 143.946 379.615 144.406 379.101C144.865 378.589 145.21 377.985 145.42 377.331C145.63 376.675 145.699 375.983 145.623 375.299Z" stroke="#120071" stroke-width="1.5" stroke-linecap="round" stroke-linejoin="round"/>
<path d="M155.729 302.832C155.979 313.442 147.517 334.48 142.729 362.344" stroke="#120071" stroke-width="1.5" stroke-linecap="round" stroke-linejoin="round"/>
<path d="M117.922 362.306L130.274 298.496" stroke="#120071" stroke-width="1.5" stroke-linecap="round" stroke-linejoin="round"/>
<path d="M171.989 255.876L157.057 302.612C147.218 304.344 137.083 302.54 128.445 297.52L150.219 193.6" stroke="#120071" stroke-width="1.5" stroke-linecap="round" stroke-linejoin="round"/>
<path d="M266.113 342.887L259.045 339.087C256.233 348.319 252.845 351.055 244.149 356.755C248.519 363.291 247.493 366.521 246.999 368.419C242.399 372.751 240.085 372.695 236.893 380.979H252.893C255.041 381.027 257.159 380.459 258.997 379.345C260.833 378.231 262.315 376.615 263.267 374.689C265.667 369.489 267.667 358.959 269.915 352.765C270.615 350.939 270.613 348.921 269.911 347.095C269.209 345.271 267.855 343.773 266.113 342.887Z" stroke="#120071" stroke-width="1.5" stroke-linecap="round" stroke-linejoin="round"/>
<path d="M244.186 356.757L198.4 307.399" stroke="#120071" stroke-width="1.5" stroke-linecap="round" stroke-linejoin="round"/>
<path d="M218.311 291.782C224.751 297.08 230.575 303.084 235.677 309.68C242.663 319.258 259.045 339.08 259.045 339.08" stroke="#120071" stroke-width="1.5" stroke-linecap="round" stroke-linejoin="round"/>
<path d="M162.529 219.853L180.009 286.539C181.337 291.601 184.047 296.191 187.837 299.799L196.547 308.091C205.829 305.099 213.771 298.953 218.993 290.717L211.129 277.717L206.151 227.029C204.323 208.149 193.053 195.131 182.973 192.337" stroke="#120071" stroke-width="1.5" stroke-linecap="round" stroke-linejoin="round"/>
<path d="M176.096 140.021C169.692 148.075 164.6 157.09 161.012 166.733C155.958 158.411 151.012 140.733 151.012 140.733" stroke="#120071" stroke-width="1.5" stroke-linecap="round" stroke-linejoin="round"/>
<path d="M7.95703 381H310.187" stroke="#120071" stroke-width="1.5" stroke-linecap="round" stroke-linejoin="round"/>
<path d="M274.052 68.0556C259.006 65.2056 244.652 74.0556 242.052 87.8136C241.168 92.6336 241.792 97.6094 243.84 102.062L237.342 112.702L249.654 110.194C253.788 114.158 258.992 116.826 264.624 117.87C279.67 120.72 294.024 111.87 296.624 98.1116C299.244 84.3556 289.138 70.9056 274.052 68.0556Z" stroke="#120071" stroke-width="1.5" stroke-linecap="round" stroke-linejoin="round"/>
<path d="M269.643 96.0593C269.681 94.3493 270.337 93.1013 272.455 90.2833C277.025 84.2053 274.255 80.0173 270.365 79.8333C269.669 79.8023 268.975 79.9249 268.333 80.1927C267.691 80.4603 267.115 80.8665 266.647 81.3821C266.179 81.8977 265.829 82.5103 265.625 83.1759C265.421 83.8415 265.367 84.5441 265.465 85.2333" stroke="#120071" stroke-width="1.5" stroke-linecap="round" stroke-linejoin="round"/>
<path d="M253.154 280.231H261.362" stroke="#120071" stroke-width="1.5" stroke-linecap="round" stroke-linejoin="round"/>
<path d="M275.914 280.193H284.122" stroke="#120071" stroke-width="1.5" stroke-linecap="round" stroke-linejoin="round"/>
<path d="M268.639 264.728V272.936" stroke="#120071" stroke-width="1.5" stroke-linecap="round" stroke-linejoin="round"/>
<path d="M268.676 287.49V295.696" stroke="#120071" stroke-width="1.5" stroke-linecap="round" stroke-linejoin="round"/>
<path d="M257.676 269.288L263.49 275.064" stroke="#120071" stroke-width="1.5" stroke-linecap="round" stroke-linejoin="round"/>
<path d="M273.824 285.361L279.638 291.135" stroke="#120071" stroke-width="1.5" stroke-linecap="round" stroke-linejoin="round"/>
<path d="M279.599 269.25L273.785 275.064" stroke="#120071" stroke-width="1.5" stroke-linecap="round" stroke-linejoin="round"/>
<path d="M263.527 285.361L257.713 291.173" stroke="#120071" stroke-width="1.5" stroke-linecap="round" stroke-linejoin="round"/>
<path d="M8.10911 87.4716C6.86131 87.469 5.63611 87.1386 4.55631 86.5134C3.47651 85.8882 2.57991 84.9902 1.95631 83.9092C1.33291 82.8284 1.00451 81.6028 1.00391 80.355C1.00331 79.1072 1.33071 77.881 1.95311 76.7996L43.6371 4.5617C44.2635 3.47866 45.1637 2.57944 46.2473 1.95426C47.3309 1.3291 48.5601 1 49.8111 1C51.0623 1 52.2913 1.3291 53.3749 1.95426C54.4587 2.57944 55.3589 3.47866 55.9851 4.5617L97.6691 76.7996C98.2937 77.8812 98.6229 79.108 98.6233 80.3568C98.6239 81.6058 98.2957 82.8328 97.6719 83.9148C97.0481 84.9968 96.1507 85.8956 95.0697 86.521C93.9887 87.1464 92.7621 87.4762 91.5131 87.4776L8.10911 87.4716Z" stroke="#120071" stroke-width="1.5" stroke-linecap="round" stroke-linejoin="round"/>
<path d="M109.105 45.7137C109.172 46.4651 109.015 47.2195 108.654 47.8815C108.293 48.5437 107.743 49.0839 107.075 49.4335C106.406 49.7833 105.649 49.9271 104.899 49.8467C104.149 49.7663 103.44 49.4653 102.861 48.9817C102.282 48.4981 101.86 47.8537 101.647 47.1301C101.434 46.4063 101.441 45.6359 101.666 44.9159C101.891 44.1959 102.325 43.5589 102.912 43.0855C103.499 42.6119 104.214 42.3233 104.965 42.2557C105.972 42.1679 106.973 42.4825 107.748 43.1305C108.524 43.7783 109.012 44.7073 109.105 45.7137Z" stroke="#120071" stroke-width="1.5" stroke-linecap="round" stroke-linejoin="round"/>
<path d="M78.1953 322.408V337.76" stroke="#120071" stroke-width="1.5" stroke-linecap="round" stroke-linejoin="round"/>
<path d="M85.89 330.083H70.502" stroke="#120071" stroke-width="1.5" stroke-linecap="round" stroke-linejoin="round"/>
<path d="M168.077 138.653C168.811 139.048 169.627 139.261 170.461 139.276C171.293 139.291 172.117 139.107 172.865 138.739C173.611 138.371 174.261 137.83 174.755 137.16C175.251 136.491 175.581 135.713 175.715 134.891C176.301 135.941 177.231 136.757 178.347 137.204C179.463 137.65 180.699 137.699 181.847 137.343C182.995 136.987 183.987 136.247 184.653 135.247C185.321 134.247 185.625 133.049 185.515 131.851C186.449 132.522 187.577 132.867 188.727 132.831C189.875 132.796 190.981 132.384 191.871 131.657C192.763 130.93 193.389 129.931 193.655 128.812C193.921 127.694 193.811 126.519 193.341 125.469C194.125 125.688 194.947 125.72 195.747 125.564C196.545 125.407 197.295 125.066 197.937 124.567C198.579 124.069 199.097 123.427 199.447 122.693C199.797 121.958 199.971 121.153 199.953 120.339C199.941 119.641 199.789 118.953 199.509 118.314C199.229 117.674 198.825 117.097 198.319 116.615C199.687 116.577 200.985 116.001 201.931 115.012C202.877 114.024 203.395 112.702 203.373 111.333C203.353 110.228 202.987 109.156 202.325 108.27C201.665 107.383 200.741 106.727 199.687 106.393C200.785 106.07 201.751 105.399 202.435 104.481C203.121 103.563 203.489 102.447 203.487 101.301C203.469 99.9661 202.939 98.6887 202.005 97.7339C201.071 96.7793 199.805 96.2205 198.471 96.1733C199.259 95.4599 199.811 94.5237 200.053 93.4891C200.297 92.4545 200.219 91.3703 199.831 90.3807C199.445 89.3913 198.765 88.5429 197.883 87.9487C197.003 87.3543 195.961 87.0421 194.899 87.0533C194.475 87.0627 194.053 87.1265 193.645 87.2433C194.133 86.2019 194.267 85.0283 194.021 83.9039C193.777 82.7797 193.169 81.7673 192.291 81.0233C191.413 80.2795 190.315 79.8453 189.165 79.7883C188.017 79.7311 186.881 80.0541 185.933 80.7073C186.065 79.5137 185.785 78.3107 185.135 77.3003C184.485 76.2899 183.509 75.5337 182.367 75.1583C181.227 74.7831 179.991 74.8117 178.869 75.2395C177.747 75.6671 176.807 76.4679 176.205 77.5073C175.357 71.6653 166.441 71.5293 165.527 77.4693C164.933 76.4257 163.999 75.6177 162.879 75.1809C161.761 74.7441 160.527 74.7049 159.383 75.0701C158.237 75.4353 157.255 76.1823 156.595 77.1865C155.937 78.1905 155.643 79.3905 155.763 80.5853C154.822 79.9233 153.689 79.5895 152.539 79.6353C151.389 79.6811 150.286 80.1039 149.4 80.8385C148.514 81.5733 147.894 82.5789 147.636 83.7007C147.379 84.8223 147.497 85.9977 147.973 87.0453C146.843 86.7379 145.642 86.8181 144.563 87.2731C143.484 87.7283 142.588 88.5319 142.019 89.5559C141.451 90.5797 141.241 91.7647 141.425 92.9215C141.609 94.0783 142.175 95.1401 143.033 95.9373C141.794 95.9757 140.609 96.4539 139.69 97.2865C138.771 98.1191 138.178 99.2515 138.018 100.481C137.858 101.711 138.141 102.957 138.816 103.997C139.492 105.038 140.515 105.803 141.703 106.157C140.513 106.502 139.485 107.26 138.802 108.294C138.119 109.329 137.827 110.572 137.978 111.802C138.129 113.032 138.713 114.169 139.625 115.007C140.538 115.846 141.719 116.332 142.957 116.379C142.098 117.172 141.528 118.23 141.341 119.385C141.153 120.539 141.358 121.723 141.923 122.747C142.487 123.771 143.379 124.576 144.455 125.034C145.531 125.492 146.73 125.575 147.859 125.271C147.464 126.105 147.298 127.029 147.377 127.949C147.457 128.868 147.78 129.75 148.313 130.503C148.846 131.256 149.57 131.854 150.41 132.235C151.251 132.616 152.177 132.767 153.095 132.671" stroke="#120071" stroke-width="1.5" stroke-linecap="round" stroke-linejoin="round"/>
<path d="M210.902 300.104L200.984 288.286" stroke="#120071" stroke-width="1.5" stroke-linecap="round" stroke-linejoin="round"/>
<path d="M146.154 302.802L150.22 288.058" stroke="#120071" stroke-width="1.5" stroke-linecap="round" stroke-linejoin="round"/>
<path d="M176.096 205.567C181.53 212.139 187.572 214.913 194.068 214.837" stroke="#120071" stroke-width="1.5" stroke-linecap="round" stroke-linejoin="round"/>
<path d="M49.8099 69.0534C51.268 69.0534 52.4499 67.8715 52.4499 66.4134C52.4499 64.9554 51.268 63.7734 49.8099 63.7734C48.3519 63.7734 47.1699 64.9554 47.1699 66.4134C47.1699 67.8715 48.3519 69.0534 49.8099 69.0534Z" stroke="#120071" stroke-width="1.5"/>
<path d="M49.7715 28.7876V54.3594" stroke="#120071" stroke-width="1.5" stroke-linecap="round"/>
</svg>
