<svg width="141" height="95" viewBox="0 0 141 95" fill="none" xmlns="http://www.w3.org/2000/svg">
<path d="M58.829 64.667C59.0064 68.782 58.2716 72.8853 56.6768 76.6849C55.0821 80.4846 52.6666 83.887 49.6024 86.6501L49.5781 86.6694C43.235 92.2756 34.9742 95.2394 26.5018 94.9487H26.5551C21.4341 95.2248 16.3148 94.3733 11.561 92.4549C6.80728 90.5364 2.53569 87.5981 -0.950348 83.8485L-0.969742 83.8292C-7.95859 75.5624 -11.5233 64.951 -10.9378 54.1561L-10.9427 54.2575C-11.2674 43.0471 -9.17711 31.8975 -4.81256 21.5606L-5.00641 22.0774C-1.52155 13.974 3.31163 6.51559 9.28909 0.0170364L9.23579 0.0750046C14.1766 -5.26787 19.9018 -9.83298 26.2159 -13.4646L26.5648 -13.6481C31.3404 -16.3943 36.3243 -18.7636 41.4709 -20.7343L42.2269 -20.9903L57.414 4.56244C51.103 7.10058 45.5635 11.2324 41.3401 16.5515L41.2771 16.6336C37.0718 21.6268 34.4342 27.7435 33.6932 34.221L33.6786 34.3756C36.9834 34.4581 40.2333 35.2357 43.2155 36.6575C46.1977 38.0793 48.8448 40.1132 50.9835 42.6259L51.0125 42.6597C56.4502 48.6949 59.2631 56.6341 58.8339 64.7346L58.8387 64.6622L58.829 64.667ZM140.958 64.667C141.133 68.7821 140.396 72.885 138.801 76.6844C137.205 80.4837 134.79 83.8862 131.726 86.6501L131.702 86.6694C125.36 92.2778 117.099 95.2419 108.626 94.9487H108.679C103.558 95.2261 98.4382 94.3753 93.6843 92.4568C88.9303 90.5382 84.6588 87.5991 81.1736 83.8485L81.1542 83.8243C74.1625 75.5573 70.5975 64.9432 71.1862 54.1464L71.1813 54.2479C70.8565 43.0374 72.9469 31.8878 77.3114 21.5509L77.1176 22.0678C80.6007 13.9646 85.4323 6.50611 91.4082 0.00737L91.3549 0.0653458C96.2975 -5.27764 102.024 -9.84273 108.34 -13.4743L108.689 -13.6578C113.463 -16.4059 118.447 -18.7753 123.595 -20.744L124.351 -21L139.533 4.55277C133.221 7.09401 127.682 11.2291 123.459 16.5515L123.396 16.6336C119.191 21.6268 116.553 27.7435 115.812 34.221L115.798 34.3756C119.101 34.4576 122.35 35.2351 125.331 36.657C128.311 38.0789 130.957 40.113 133.093 42.6259L133.122 42.6597C138.566 48.6903 141.384 56.6286 140.958 64.7298L140.963 64.6574L140.958 64.667Z" fill="#767676"/>
</svg>
